<svg id="visual" viewBox="0 0 900 200" width="900" height="200" xmlns="http://www.w3.org/2000/svg" xmlns:xlink="http://www.w3.org/1999/xlink" version="1.1"><path d="M0 53L13.7 53.2C27.3 53.3 54.7 53.7 82 54.5C109.3 55.3 136.7 56.7 163.8 57.2C191 57.7 218 57.3 245.2 53.5C272.3 49.7 299.7 42.3 327 37.7C354.3 33 381.7 31 409 31C436.3 31 463.7 33 491 33.3C518.3 33.7 545.7 32.3 573 33C600.3 33.7 627.7 36.3 654.8 40C682 43.7 709 48.3 736.2 47.7C763.3 47 790.7 41 818 39.2C845.3 37.3 872.7 39.7 886.3 40.8L900 42L900 201L886.3 201C872.7 201 845.3 201 818 201C790.7 201 763.3 201 736.2 201C709 201 682 201 654.8 201C627.7 201 600.3 201 573 201C545.7 201 518.3 201 491 201C463.7 201 436.3 201 409 201C381.7 201 354.3 201 327 201C299.7 201 272.3 201 245.2 201C218 201 191 201 163.8 201C136.7 201 109.3 201 82 201C54.7 201 27.3 201 13.7 201L0 201Z" fill="#ffffff"></path><path d="M0 60L13.7 62C27.3 64 54.7 68 82 70.2C109.3 72.3 136.7 72.7 163.8 72C191 71.3 218 69.7 245.2 65.2C272.3 60.7 299.7 53.3 327 53.7C354.3 54 381.7 62 409 62.2C436.3 62.3 463.7 54.7 491 56.2C518.3 57.7 545.7 68.3 573 71C600.3 73.7 627.7 68.3 654.8 70.2C682 72 709 81 736.2 78.3C763.3 75.7 790.7 61.3 818 60.8C845.3 60.3 872.7 73.7 886.3 80.3L900 87L900 201L886.3 201C872.7 201 845.3 201 818 201C790.7 201 763.3 201 736.2 201C709 201 682 201 654.8 201C627.7 201 600.3 201 573 201C545.7 201 518.3 201 491 201C463.7 201 436.3 201 409 201C381.7 201 354.3 201 327 201C299.7 201 272.3 201 245.2 201C218 201 191 201 163.8 201C136.7 201 109.3 201 82 201C54.7 201 27.3 201 13.7 201L0 201Z" fill="#dbdde0"></path><path d="M0 109L13.7 106.2C27.3 103.3 54.7 97.7 82 93.5C109.3 89.3 136.7 86.7 163.8 89.3C191 92 218 100 245.2 98.2C272.3 96.3 299.7 84.7 327 83.8C354.3 83 381.7 93 409 94.2C436.3 95.3 463.7 87.7 491 82.7C518.3 77.7 545.7 75.3 573 77.8C600.3 80.3 627.7 87.7 654.8 91C682 94.3 709 93.7 736.2 89.3C763.3 85 790.7 77 818 75.8C845.3 74.7 872.7 80.3 886.3 83.2L900 86L900 201L886.3 201C872.7 201 845.3 201 818 201C790.7 201 763.3 201 736.2 201C709 201 682 201 654.8 201C627.7 201 600.3 201 573 201C545.7 201 518.3 201 491 201C463.7 201 436.3 201 409 201C381.7 201 354.3 201 327 201C299.7 201 272.3 201 245.2 201C218 201 191 201 163.8 201C136.7 201 109.3 201 82 201C54.7 201 27.3 201 13.7 201L0 201Z" fill="#b9bcc2"></path><path d="M0 90L13.7 91.2C27.3 92.3 54.7 94.7 82 96.2C109.3 97.7 136.7 98.3 163.8 102.3C191 106.3 218 113.7 245.2 116.5C272.3 119.3 299.7 117.7 327 112.3C354.3 107 381.7 98 409 94C436.3 90 463.7 91 491 92.7C518.3 94.3 545.7 96.7 573 99.2C600.3 101.7 627.7 104.3 654.8 103.2C682 102 709 97 736.2 99.2C763.3 101.3 790.7 110.7 818 112.8C845.3 115 872.7 110 886.3 107.5L900 105L900 201L886.3 201C872.7 201 845.3 201 818 201C790.7 201 763.3 201 736.2 201C709 201 682 201 654.8 201C627.7 201 600.3 201 573 201C545.7 201 518.3 201 491 201C463.7 201 436.3 201 409 201C381.7 201 354.3 201 327 201C299.7 201 272.3 201 245.2 201C218 201 191 201 163.8 201C136.7 201 109.3 201 82 201C54.7 201 27.3 201 13.7 201L0 201Z" fill="#979ca5"></path><path d="M0 141L13.7 138C27.3 135 54.7 129 82 126.5C109.3 124 136.7 125 163.8 123.3C191 121.7 218 117.3 245.2 119.5C272.3 121.7 299.7 130.3 327 134.3C354.3 138.3 381.7 137.7 409 133.2C436.3 128.7 463.7 120.3 491 119.3C518.3 118.3 545.7 124.7 573 125C600.3 125.3 627.7 119.7 654.8 121.3C682 123 709 132 736.2 134.7C763.3 137.3 790.7 133.7 818 130.2C845.3 126.7 872.7 123.3 886.3 121.7L900 120L900 201L886.3 201C872.7 201 845.3 201 818 201C790.7 201 763.3 201 736.2 201C709 201 682 201 654.8 201C627.7 201 600.3 201 573 201C545.7 201 518.3 201 491 201C463.7 201 436.3 201 409 201C381.7 201 354.3 201 327 201C299.7 201 272.3 201 245.2 201C218 201 191 201 163.8 201C136.7 201 109.3 201 82 201C54.7 201 27.3 201 13.7 201L0 201Z" fill="#777d89"></path><path d="M0 130L13.7 131C27.3 132 54.7 134 82 133.5C109.3 133 136.7 130 163.8 132C191 134 218 141 245.2 145C272.3 149 299.7 150 327 149.2C354.3 148.3 381.7 145.7 409 142.7C436.3 139.7 463.7 136.3 491 138.2C518.3 140 545.7 147 573 150.8C600.3 154.7 627.7 155.3 654.8 151.8C682 148.3 709 140.7 736.2 139.7C763.3 138.7 790.7 144.3 818 145C845.3 145.7 872.7 141.3 886.3 139.2L900 137L900 201L886.3 201C872.7 201 845.3 201 818 201C790.7 201 763.3 201 736.2 201C709 201 682 201 654.8 201C627.7 201 600.3 201 573 201C545.7 201 518.3 201 491 201C463.7 201 436.3 201 409 201C381.7 201 354.3 201 327 201C299.7 201 272.3 201 245.2 201C218 201 191 201 163.8 201C136.7 201 109.3 201 82 201C54.7 201 27.3 201 13.7 201L0 201Z" fill="#585f6e"></path><path d="M0 172L13.7 168.2C27.3 164.3 54.7 156.7 82 153.5C109.3 150.3 136.7 151.7 163.8 152.7C191 153.7 218 154.3 245.2 154.5C272.3 154.7 299.7 154.3 327 154.8C354.3 155.3 381.7 156.7 409 156C436.3 155.3 463.7 152.7 491 153.2C518.3 153.7 545.7 157.3 573 157.3C600.3 157.3 627.7 153.7 654.8 155.5C682 157.3 709 164.7 736.2 164.7C763.3 164.7 790.7 157.3 818 156.3C845.3 155.3 872.7 160.7 886.3 163.3L900 166L900 201L886.3 201C872.7 201 845.3 201 818 201C790.7 201 763.3 201 736.2 201C709 201 682 201 654.8 201C627.7 201 600.3 201 573 201C545.7 201 518.3 201 491 201C463.7 201 436.3 201 409 201C381.7 201 354.3 201 327 201C299.7 201 272.3 201 245.2 201C218 201 191 201 163.8 201C136.7 201 109.3 201 82 201C54.7 201 27.3 201 13.7 201L0 201Z" fill="#3a4354"></path><path d="M0 185L13.7 185.2C27.3 185.3 54.7 185.7 82 186C109.3 186.3 136.7 186.7 163.8 186.7C191 186.7 218 186.3 245.2 185.2C272.3 184 299.7 182 327 182C354.3 182 381.7 184 409 184.8C436.3 185.7 463.7 185.3 491 182.2C518.3 179 545.7 173 573 172.3C600.3 171.7 627.7 176.3 654.8 177.3C682 178.3 709 175.7 736.2 175.5C763.3 175.3 790.7 177.7 818 178.7C845.3 179.7 872.7 179.3 886.3 179.2L900 179L900 201L886.3 201C872.7 201 845.3 201 818 201C790.7 201 763.3 201 736.2 201C709 201 682 201 654.8 201C627.7 201 600.3 201 573 201C545.7 201 518.3 201 491 201C463.7 201 436.3 201 409 201C381.7 201 354.3 201 327 201C299.7 201 272.3 201 245.2 201C218 201 191 201 163.8 201C136.7 201 109.3 201 82 201C54.7 201 27.3 201 13.7 201L0 201Z" fill="#1e293b"></path></svg>