<svg id="visual" viewBox="0 0 900 600" width="900" height="600" xmlns="http://www.w3.org/2000/svg" xmlns:xlink="http://www.w3.org/1999/xlink" version="1.1"><path d="M0 347L13.7 356.2C27.3 365.3 54.7 383.7 82 384.5C109.3 385.3 136.7 368.7 163.8 359.8C191 351 218 350 245.2 360.3C272.3 370.7 299.7 392.3 327 403.3C354.3 414.3 381.7 414.7 409 405.3C436.3 396 463.7 377 491 366.3C518.3 355.7 545.7 353.3 573 360.3C600.3 367.3 627.7 383.7 654.8 383C682 382.3 709 364.7 736.2 356.3C763.3 348 790.7 349 818 354.3C845.3 359.7 872.7 369.3 886.3 374.2L900 379L900 601L886.3 601C872.7 601 845.3 601 818 601C790.7 601 763.3 601 736.2 601C709 601 682 601 654.8 601C627.7 601 600.3 601 573 601C545.7 601 518.3 601 491 601C463.7 601 436.3 601 409 601C381.7 601 354.3 601 327 601C299.7 601 272.3 601 245.2 601C218 601 191 601 163.8 601C136.7 601 109.3 601 82 601C54.7 601 27.3 601 13.7 601L0 601Z" fill="#ffffff"></path><path d="M0 407L13.7 405.5C27.3 404 54.7 401 82 403C109.3 405 136.7 412 163.8 417.7C191 423.3 218 427.7 245.2 429.7C272.3 431.7 299.7 431.3 327 431C354.3 430.7 381.7 430.3 409 428.3C436.3 426.3 463.7 422.7 491 417.5C518.3 412.3 545.7 405.7 573 402.8C600.3 400 627.7 401 654.8 405.5C682 410 709 418 736.2 421.8C763.3 425.7 790.7 425.3 818 424C845.3 422.7 872.7 420.3 886.3 419.2L900 418L900 601L886.3 601C872.7 601 845.3 601 818 601C790.7 601 763.3 601 736.2 601C709 601 682 601 654.8 601C627.7 601 600.3 601 573 601C545.7 601 518.3 601 491 601C463.7 601 436.3 601 409 601C381.7 601 354.3 601 327 601C299.7 601 272.3 601 245.2 601C218 601 191 601 163.8 601C136.7 601 109.3 601 82 601C54.7 601 27.3 601 13.7 601L0 601Z" fill="#dbdde0"></path><path d="M0 438L13.7 431.8C27.3 425.7 54.7 413.3 82 409.2C109.3 405 136.7 409 163.8 419.2C191 429.3 218 445.7 245.2 452.3C272.3 459 299.7 456 327 449.7C354.3 443.3 381.7 433.7 409 428.2C436.3 422.7 463.7 421.3 491 422.7C518.3 424 545.7 428 573 432.7C600.3 437.3 627.7 442.7 654.8 438.3C682 434 709 420 736.2 420.8C763.3 421.7 790.7 437.3 818 446.3C845.3 455.3 872.7 457.7 886.3 458.8L900 460L900 601L886.3 601C872.7 601 845.3 601 818 601C790.7 601 763.3 601 736.2 601C709 601 682 601 654.8 601C627.7 601 600.3 601 573 601C545.7 601 518.3 601 491 601C463.7 601 436.3 601 409 601C381.7 601 354.3 601 327 601C299.7 601 272.3 601 245.2 601C218 601 191 601 163.8 601C136.7 601 109.3 601 82 601C54.7 601 27.3 601 13.7 601L0 601Z" fill="#b9bcc2"></path><path d="M0 474L13.7 472C27.3 470 54.7 466 82 461.3C109.3 456.7 136.7 451.3 163.8 447.8C191 444.3 218 442.7 245.2 447.5C272.3 452.3 299.7 463.7 327 468.5C354.3 473.3 381.7 471.7 409 472C436.3 472.3 463.7 474.7 491 473.3C518.3 472 545.7 467 573 459C600.3 451 627.7 440 654.8 441.3C682 442.7 709 456.3 736.2 462.3C763.3 468.3 790.7 466.7 818 462.5C845.3 458.3 872.7 451.7 886.3 448.3L900 445L900 601L886.3 601C872.7 601 845.3 601 818 601C790.7 601 763.3 601 736.2 601C709 601 682 601 654.8 601C627.7 601 600.3 601 573 601C545.7 601 518.3 601 491 601C463.7 601 436.3 601 409 601C381.7 601 354.3 601 327 601C299.7 601 272.3 601 245.2 601C218 601 191 601 163.8 601C136.7 601 109.3 601 82 601C54.7 601 27.3 601 13.7 601L0 601Z" fill="#979ca5"></path><path d="M0 474L13.7 475.3C27.3 476.7 54.7 479.3 82 484.7C109.3 490 136.7 498 163.8 497.5C191 497 218 488 245.2 480.7C272.3 473.3 299.7 467.7 327 470.2C354.3 472.7 381.7 483.3 409 486.2C436.3 489 463.7 484 491 481.3C518.3 478.7 545.7 478.3 573 476.2C600.3 474 627.7 470 654.8 472.3C682 474.7 709 483.3 736.2 488.5C763.3 493.7 790.7 495.3 818 490C845.3 484.7 872.7 472.3 886.3 466.2L900 460L900 601L886.3 601C872.7 601 845.3 601 818 601C790.7 601 763.3 601 736.2 601C709 601 682 601 654.8 601C627.7 601 600.3 601 573 601C545.7 601 518.3 601 491 601C463.7 601 436.3 601 409 601C381.7 601 354.3 601 327 601C299.7 601 272.3 601 245.2 601C218 601 191 601 163.8 601C136.7 601 109.3 601 82 601C54.7 601 27.3 601 13.7 601L0 601Z" fill="#777d89"></path><path d="M0 518L13.7 515.8C27.3 513.7 54.7 509.3 82 507.7C109.3 506 136.7 507 163.8 511.3C191 515.7 218 523.3 245.2 526C272.3 528.7 299.7 526.3 327 519.5C354.3 512.7 381.7 501.3 409 503.2C436.3 505 463.7 520 491 527.5C518.3 535 545.7 535 573 529.5C600.3 524 627.7 513 654.8 505.5C682 498 709 494 736.2 492.8C763.3 491.7 790.7 493.3 818 496.5C845.3 499.7 872.7 504.3 886.3 506.7L900 509L900 601L886.3 601C872.7 601 845.3 601 818 601C790.7 601 763.3 601 736.2 601C709 601 682 601 654.8 601C627.7 601 600.3 601 573 601C545.7 601 518.3 601 491 601C463.7 601 436.3 601 409 601C381.7 601 354.3 601 327 601C299.7 601 272.3 601 245.2 601C218 601 191 601 163.8 601C136.7 601 109.3 601 82 601C54.7 601 27.3 601 13.7 601L0 601Z" fill="#585f6e"></path><path d="M0 554L13.7 554.7C27.3 555.3 54.7 556.7 82 553.5C109.3 550.3 136.7 542.7 163.8 538C191 533.3 218 531.7 245.2 529.5C272.3 527.3 299.7 524.7 327 526.3C354.3 528 381.7 534 409 535.2C436.3 536.3 463.7 532.7 491 530C518.3 527.3 545.7 525.7 573 525.8C600.3 526 627.7 528 654.8 533.3C682 538.7 709 547.3 736.2 549.5C763.3 551.7 790.7 547.3 818 541.5C845.3 535.7 872.7 528.3 886.3 524.7L900 521L900 601L886.3 601C872.7 601 845.3 601 818 601C790.7 601 763.3 601 736.2 601C709 601 682 601 654.8 601C627.7 601 600.3 601 573 601C545.7 601 518.3 601 491 601C463.7 601 436.3 601 409 601C381.7 601 354.3 601 327 601C299.7 601 272.3 601 245.2 601C218 601 191 601 163.8 601C136.7 601 109.3 601 82 601C54.7 601 27.3 601 13.7 601L0 601Z" fill="#3a4354"></path><path d="M0 571L13.7 570.8C27.3 570.7 54.7 570.3 82 571C109.3 571.7 136.7 573.3 163.8 575.2C191 577 218 579 245.2 578.8C272.3 578.7 299.7 576.3 327 575.7C354.3 575 381.7 576 409 575.7C436.3 575.3 463.7 573.7 491 571.5C518.3 569.3 545.7 566.7 573 565.3C600.3 564 627.7 564 654.8 563.5C682 563 709 562 736.2 563.3C763.3 564.7 790.7 568.3 818 569.3C845.3 570.3 872.7 568.7 886.3 567.8L900 567L900 601L886.3 601C872.7 601 845.3 601 818 601C790.7 601 763.3 601 736.2 601C709 601 682 601 654.8 601C627.7 601 600.3 601 573 601C545.7 601 518.3 601 491 601C463.7 601 436.3 601 409 601C381.7 601 354.3 601 327 601C299.7 601 272.3 601 245.2 601C218 601 191 601 163.8 601C136.7 601 109.3 601 82 601C54.7 601 27.3 601 13.7 601L0 601Z" fill="#1e293b"></path></svg>